<?xml version="1.0" standalone="no"?>
<!DOCTYPE svg PUBLIC "-//W3C//DTD SVG 20010904//EN"
 "http://www.w3.org/TR/2001/REC-SVG-20010904/DTD/svg10.dtd">
<svg version="1.0" xmlns="http://www.w3.org/2000/svg"
 width="1280.000000pt" height="1249.000000pt" viewBox="0 0 1280.000000 1249.000000"
 preserveAspectRatio="xMidYMid meet">
<metadata>
Created by potrace 1.15, written by Peter Selinger 2001-2017
</metadata>
<g transform="translate(0.000000,1249.000000) scale(0.100000,-0.100000)"
fill="#000000" stroke="none">
<path d="M5678 12458 c4 -18 7 -64 7 -103 0 -106 -41 -214 -197 -524 -231
-456 -281 -590 -282 -746 0 -110 24 -174 89 -234 85 -78 177 -107 373 -118
115 -6 122 -7 122 -27 0 -12 12 -43 25 -71 14 -27 25 -54 25 -59 0 -12 -216
-1 -302 15 -62 11 -69 11 -88 -6 -11 -10 -20 -27 -20 -39 0 -11 -17 -59 -37
-106 -31 -71 -37 -100 -41 -172 -6 -119 17 -191 109 -338 115 -186 149 -265
149 -352 0 -49 21 -136 86 -362 30 -104 51 -192 47 -196 -4 -4 -75 -13 -158
-19 -82 -7 -226 -21 -319 -32 -93 -10 -170 -18 -171 -16 -1 1 -13 23 -28 48
-42 74 -131 189 -320 416 -219 263 -286 354 -332 447 -31 63 -38 87 -46 182
-5 60 -10 118 -12 129 -2 24 -152 -242 -220 -391 -158 -348 -244 -645 -254
-882 -5 -124 -7 -133 -27 -137 -12 -3 -160 -30 -331 -60 -383 -68 -484 -89
-594 -125 -117 -38 -260 -95 -351 -140 -41 -21 -86 -41 -99 -45 l-24 -7 6 74
c3 50 21 121 51 214 58 173 72 254 57 337 -13 77 -68 189 -121 249 -22 25 -40
53 -40 60 0 8 -9 23 -20 33 -23 21 -24 21 -180 -34 -72 -25 -199 -54 -207 -47
-2 1 3 39 9 84 l12 82 36 6 c134 24 286 86 355 146 55 48 88 118 93 196 5 74
-9 133 -54 223 -64 131 -127 217 -373 508 -204 243 -286 351 -330 436 -32 64
-39 97 -58 267 l-8 67 -81 -147 c-182 -330 -318 -693 -369 -987 -20 -110 -22
-299 -5 -380 20 -95 63 -179 122 -238 98 -98 209 -131 418 -125 l135 3 -3 -35
c-2 -19 -11 -54 -21 -79 -16 -44 -17 -45 -86 -63 -50 -12 -103 -17 -185 -16
-146 2 -413 -33 -441 -58 -10 -9 -19 -24 -19 -32 0 -7 -18 -35 -41 -60 -70
-80 -92 -134 -97 -237 -5 -112 9 -157 117 -374 95 -189 116 -247 136 -376 9
-55 23 -131 31 -168 8 -38 14 -77 14 -87 0 -11 -26 -38 -68 -68 -152 -112
-307 -264 -420 -413 -76 -101 -141 -218 -148 -267 -3 -26 -21 -124 -40 -218
-95 -487 -111 -681 -72 -869 32 -157 134 -267 285 -311 10 -3 13 -143 13 -659
0 -617 -1 -655 -17 -655 -33 -1 -101 -38 -146 -79 -70 -65 -91 -123 -94 -261
-1 -64 -12 -199 -24 -300 -13 -112 -22 -251 -23 -351 l-1 -166 -98 -87 c-220
-197 -370 -417 -429 -633 -17 -63 -21 -106 -21 -223 0 -129 3 -155 27 -235
128 -428 554 -814 1257 -1140 1216 -565 3101 -895 5109 -895 2010 0 3897 331
5110 895 703 327 1128 713 1256 1140 24 80 27 106 27 235 0 117 -4 160 -21
223 -82 301 -330 595 -719 855 l-92 62 -1 228 -1 229 45 114 c25 63 56 153 70
202 73 250 43 447 -78 512 l-34 18 -7 446 -7 446 40 75 c70 131 96 240 112
471 6 85 18 201 27 259 21 142 21 370 -1 485 -73 389 -315 709 -737 972 -107
67 -173 98 -339 158 l-115 42 -7 89 c-17 214 -14 257 43 494 25 104 33 158 33
235 1 92 -2 105 -30 166 -32 68 -76 119 -147 170 -22 16 -45 39 -51 51 -6 12
-22 24 -36 28 -42 10 -410 -25 -453 -44 -29 -13 -62 -16 -138 -14 l-101 3 -33
55 c-58 95 -57 96 30 104 172 16 310 71 391 158 85 91 115 193 102 350 -20
251 -207 621 -511 1010 -98 126 -291 340 -295 328 -2 -4 4 -48 12 -97 22 -125
20 -189 -10 -285 -14 -46 -106 -247 -204 -448 -204 -416 -240 -509 -247 -651
-7 -120 11 -182 70 -247 80 -85 181 -120 374 -129 l132 -6 7 -31 c3 -17 17
-52 30 -78 l23 -48 -107 0 c-59 1 -139 6 -178 13 -78 14 -123 6 -126 -21 0 -9
-2 -22 -2 -27 -1 -6 -13 -38 -28 -71 -92 -205 -75 -339 75 -569 25 -39 44 -71
42 -73 -1 -1 -36 10 -76 26 -103 41 -506 172 -671 217 l-138 39 6 36 c16 102
-55 270 -188 441 -46 59 -159 193 -253 299 -222 252 -306 357 -350 442 -32 60
-39 86 -53 199 l-16 129 -34 -63 c-203 -362 -367 -837 -398 -1144 -8 -85 3
-81 -144 -58 -52 8 -163 15 -246 15 l-151 0 -12 178 c-6 97 -16 234 -22 304
-14 151 -10 188 42 427 60 276 53 391 -32 498 -33 41 -115 113 -130 113 -5 0
-15 13 -23 29 -9 16 -22 31 -31 35 -9 3 -106 -1 -216 -9 -148 -11 -209 -20
-232 -33 -25 -13 -57 -17 -138 -17 -102 0 -108 1 -127 25 -24 29 -67 118 -61
124 3 3 44 10 92 16 161 20 268 62 349 138 180 168 171 431 -28 822 -109 216
-308 506 -480 703 -67 76 -69 77 -116 77 l-47 0 7 -32z"/>
</g>
</svg>
